<svg xmlns="http://www.w3.org/2000/svg" version="1.1" xmlns:xlink="http://www.w3.org/1999/xlink" xmlns:svgjs="http://svgjs.dev/svgjs" width="100%" height="100%" viewBox="0 0 1000 600"><rect width="1000" height="600" x="0" y="0" fill="#11111b"/><g><rect width="333.3333333333333" height="333.3333333333333" rx="13.333333333333334" ry="13.333333333333334" y="77.7777739630807" fill="#11111b" transform="matrix(2.2499999313354513,0,0,2.2499999313354517,0,-249.99999084472722)" x="55.55555725097656"/><path d="M174.64779193499646 319.4444507562505L174.64779193499646 319.4444507562505Q161.5917495545772 319.4444507562505 150.05934994692316 312.82448560561534L150.05934994692316 312.82448560561534Q137.58124103203556 305.048653523917 133.40435825842053 293.51625391626294L133.40435825842053 293.51625391626294Q131.90698518863402 289.3656408456267 131.1451638022514 285.8717703494581Q130.3833424158688 282.3516301503108 130.3833424158688 279.9085477732907L130.3833424158688 279.9085477732907Q130.3833424158688 273.8402463852086 134.74411311033478 273.8402463852086L134.74411311033478 273.8402463852086Q136.05759825927032 273.8402463852086 136.24148618012129 275.18000123712284L136.24148618012129 275.18000123712284Q137.18719548735487 278.77895054520616 137.9490168737375 281.2220329222263Q138.7108382601201 283.69138500222505 139.28877172565174 285.18875807201164L139.28877172565174 285.18875807201164Q140.23448103288536 287.84199807286143 141.73185410267186 290.1274622320092Q143.25549687543707 292.3866566881784 144.96302756905328 294.46196322349647L144.96302756905328 294.46196322349647Q153.84218717585753 304.49698976136403 168.78964817074396 304.49698976136403L168.78964817074396 304.49698976136403Q171.44288817159375 304.49698976136403 175.01556777669842 303.3673925332795L175.01556777669842 303.3673925332795Q179.00856262946246 302.21152560221617 179.56022639201538 302.21152560221617L179.56022639201538 302.21152560221617Q180.138159857547 302.42168322604584 180.138159857547 302.78945906774777L180.138159857547 302.78945906774777Q180.138159857547 306.2045204549802 165.7686323281922 306.2045204549802L165.7686323281922 306.2045204549802Q145.3308034107552 306.2045204549802 138.89472618097108 292.20276876732737L138.89472618097108 292.20276876732737Q150.24323786777416 317.5530321417833 174.4639040141455 317.5530321417833L174.4639040141455 317.5530321417833Q175.01556777669842 317.5530321417833 175.777389163081 317.5530321417833Q176.53921054946363 317.5530321417833 177.30103193584625 317.34287451795365L177.30103193584625 317.34287451795365Q177.6688077775482 317.1589865971026 178.71959589669663 316.7912107554007Q179.74411431286637 316.39716521072 181.2677570856316 316.0293893690181L181.2677570856316 316.0293893690181Q189.96302877158485 313.3761493681683 201.88947392391952 295.0398966890282L201.88947392391952 295.0398966890282Q206.2239749154068 288.41993153839303 209.92800303540503 281.61607846690697Q213.60576145242453 274.78595569244214 216.44288937412531 267.79821470010506L216.44288937412531 267.79821470010506Q221.17143591029327 257.21152439968466 223.82467591114303 246.99260994096616L223.82467591114303 246.99260994096616Q221.93325729667586 238.48122617586384 214.36758283880718 238.48122617586384L214.36758283880718 238.48122617586384Q213.05409768987164 238.48122617586384 212.66005214519095 238.6651140967148L212.66005214519095 238.6651140967148Q212.66005214519095 235.82798617501405 214.9455163043388 233.27982498607915Q217.20471076050794 230.7316637971442 220.22572660305968 230.7316637971442L220.22572660305968 230.7316637971442Q225.34831868390827 230.7316637971442 225.7160945256102 238.29733825501287L225.7160945256102 238.29733825501287Q227.42362521922644 230.54777587629317 228.18544660560903 222.9821014184245Q228.92099828901294 215.4164269605558 228.92099828901294 208.40241626524002L228.92099828901294 208.40241626524002Q228.92099828901294 206.9050431954535 228.92099828901294 205.19751250183728Q228.92099828901294 203.48998180822107 228.73711036816195 201.9663390354559L228.73711036816195 201.9663390354559Q222.11714521752685 200.46896596566936 211.71434283795736 198.1835018065215Q201.31154045838792 195.9243073503524 187.70383431541572 192.90329150780067L187.70383431541572 192.90329150780067Q178.79840500563276 191.19576081418447 171.52169728052988 190.25005150695088Q164.244989555427 189.3043421997173 158.3868457911745 189.3043421997173L158.3868457911745 189.3043421997173Q143.80716063799002 189.3043421997173 136.451643803951 195.16248596396977L136.451643803951 195.16248596396977Q130.56723033671977 199.89103250013775 130.56723033671977 205.74917626439023L130.56723033671977 205.74917626439023Q130.56723033671977 215.9680907231087 144.96302756905328 215.9680907231087L144.96302756905328 215.9680907231087Q145.5146913316062 215.9680907231087 145.5146913316062 216.15197864395967L145.5146913316062 216.15197864395967Q145.5146913316062 216.9138000303423 140.78614479543825 217.0976879511933L140.78614479543825 217.0976879511933Q140.41836895373632 217.0976879511933 140.02432340905565 217.3866546839591Q139.6565475673537 217.6756214167249 139.07861410182207 217.6756214167249L139.07861410182207 217.6756214167249Q137.76512895288653 217.6756214167249 136.24148618012129 216.9138000303423L136.24148618012129 216.9138000303423Q129.06985726693324 214.47071765332217 129.06985726693324 206.9050431954535L129.06985726693324 206.9050431954535Q129.06985726693324 204.80346695715664 129.72659984140103 202.5442725009875Q130.3833424158688 200.2850780448184 131.90698518863402 198.1835018065215L131.90698518863402 198.1835018065215Q142.67756340990545 182.10644358355052 166.13640816989417 182.10644358355052L166.13640816989417 182.10644358355052Q170.86495470606212 182.10644358355052 176.2502438166978 182.57929823716734Q181.63553292733354 183.0521528907841 187.8877222362667 184.57579566354931L187.8877222362667 184.57579566354931L227.97528898177936 194.03288873588522Q226.29402799114186 181.7386677418486 219.46390521667706 173.41117189759728L219.46390521667706 173.41117189759728Q218.15042006774152 172.09768674866172 218.15042006774152 170.96808952057717L218.15042006774152 170.96808952057717Q218.15042006774152 169.44444674781192 219.8579507613577 169.44444674781192L219.8579507613577 169.44444674781192Q220.8036600685913 169.44444674781192 222.69507868305848 170.96808952057717L222.69507868305848 170.96808952057717Q229.86670759624656 178.32360635461617 232.15217175539436 194.9785980431188L232.15217175539436 194.9785980431188Q242.55497413496386 197.2377924992879 250.4884244345345 198.39365943035122L250.4884244345345 198.39365943035122L252.9577765145333 194.2167766567362Q254.45514958431983 191.77369427971607 256.74061374346763 189.77719685333406Q258.9998081996368 187.78069942695205 261.83693612133754 185.88928081248488L261.83693612133754 185.88928081248488Q268.0891254302707 182.3166012073802 273.18544780814057 182.3166012073802L273.18544780814057 182.3166012073802Q275.8386878089904 182.3166012073802 279.33255830515895 183.9978621980177Q282.82642880132744 185.70539289163392 282.82642880132744 188.3586328924837L282.82642880132744 188.3586328924837Q282.82642880132744 190.43393942780185 281.14516781068994 190.43393942780185L281.14516781068994 190.43393942780185Q280.7511222660093 190.43393942780185 277.91399434430855 187.5968115061011L277.91399434430855 187.5968115061011Q275.47091196728843 184.57579566354931 272.23973850090704 184.57579566354931L272.23973850090704 184.57579566354931Q265.6197733502719 184.57579566354931 260.523450972402 195.55653150865047L260.523450972402 195.55653150865047L258.8159202787858 199.12921111375513Q261.2852723587846 199.3393687375848 263.6495456268686 199.3393687375848Q266.0138188949526 199.3393687375848 267.90523750941975 199.3393687375848L267.90523750941975 199.3393687375848Q281.14516781068994 199.3393687375848 285.2957808813263 194.9785980431188L285.2957808813263 194.9785980431188Q288.7108422685587 191.0118728933335 288.7108422685587 186.09943843631456L288.7108422685587 186.09943843631456Q288.7108422685587 183.4461984354648 287.1871994957935 181.26581308823177Q285.6635567230282 179.0854277409988 285.6635567230282 179.0854277409988L285.6635567230282 179.0854277409988Q285.6635567230282 178.1397184337652 286.8194236540915 178.1397184337652L286.8194236540915 178.1397184337652Q290.2082153383452 178.1397184337652 290.2082153383452 186.09943843631456L290.2082153383452 186.09943843631456Q290.2082153383452 205.19751250183728 258.23798681325417 205.19751250183728L258.23798681325417 205.19751250183728L256.74061374346763 205.19751250183728L241.0313313621986 254.19050855713292Q230.81241690348014 284.45320638860767 217.78264422603957 299.58455530434514L217.78264422603957 299.58455530434514Q200.5497190720053 319.4444507562505 174.64779193499646 319.4444507562505ZM182.39735431371616 316.9750986762516L182.39735431371616 316.9750986762516Q203.2029590728551 313.9540828336999 216.44288937412531 293.3323659954119L216.44288937412531 293.3323659954119Q220.8036600685913 286.34462500307484 225.05935195114245 275.2588103460589Q229.3150438336936 264.19926539202174 233.46565690432988 249.25180439713526L233.46565690432988 249.25180439713526Q238.19420344049786 231.86126102522874 241.60926482773027 220.61782815034056Q244.99805651198392 209.3481255724736 247.28352067113175 204.61957903630568L247.28352067113175 204.61957903630568Q243.86845928389937 204.2518031946037 240.269509975816 203.85775764992306Q236.69683037071133 203.48998180822107 232.91399314177698 202.72816042183845L232.91399314177698 202.72816042183845L232.91399314177698 206.69488557162381Q232.91399314177698 220.88052518012765 229.6040105664594 236.1169529077799Q226.29402799114186 251.35338063543216 219.8579507613577 267.61432677925416L219.8579507613577 267.61432677925416Q204.54271392476932 305.25881114774666 182.39735431371616 316.9750986762516ZM250.67231235538546 311.1169549119992L250.67231235538546 311.1169549119992Q249.35882720644992 311.1169549119992 247.94026324559954 309.4094242183829Q246.52169928474916 307.7018935247668 246.52169928474916 306.3884083758312L246.52169928474916 306.3884083758312L246.52169928474916 305.8104749102996L248.22922997836537 302.60557114689686Q249.72660304815184 298.2448004524309 251.25024582091712 292.09768995541253Q252.77388859368233 285.95057945839426 254.08737374261784 278.01712915882354L254.08737374261784 278.01712915882354Q254.27126166346883 276.12571054435637 254.6653072081495 273.94532519712345Q255.03308304985146 271.7649398498904 255.4008588915534 268.9278119281896L255.4008588915534 268.9278119281896Q256.346568198787 265.1449746992553 261.2852723587846 265.1449746992553L261.2852723587846 265.1449746992553Q262.7826454285712 265.1449746992553 262.7826454285712 266.2745719273398L262.7826454285712 266.2745719273398Q262.7826454285712 266.6686174720205 262.41486958686914 268.9278119281896Q262.0208240421885 271.2132760873375 261.2852723587846 275.18000123712284L261.2852723587846 275.18000123712284Q260.523450972402 279.5145022286101 259.47266285325355 284.6370943094587Q258.4481444370839 289.7334166873286 257.1083895851696 295.59156045158113L257.1083895851696 295.59156045158113L266.0138188949526 280.6703691596733Q272.6337840455877 269.5057453937213 277.1521729579259 269.5057453937213L277.1521729579259 269.5057453937213Q279.9893008796267 269.5057453937213 280.1994585034564 272.894537077975L280.1994585034564 272.894537077975Q280.7511222660093 280.85425708052435 281.0400889987751 288.60381945924405Q281.32905573154096 296.35338183796375 283.1153955340933 301.4759739188123Q284.9280050396243 306.5722962966822 289.65655157579226 306.5722962966822L289.65655157579226 306.5722962966822Q292.861455339195 306.5722962966822 295.98754999366156 305.25881114774666Q299.1136446481281 303.91905629583243 303.0803697979135 300.24129787881293Q307.04709494769884 296.53726975881466 312.5374628702493 289.3656408456267L312.5374628702493 289.3656408456267Q312.72135079110035 288.971595300946 313.29928425663195 288.41993153839303Q313.8509480191849 287.84199807286143 314.6127694055675 287.84199807286143L314.6127694055675 287.84199807286143Q315.37459079195014 287.84199807286143 315.37459079195014 288.60381945924405L315.37459079195014 288.60381945924405Q315.37459079195014 289.3656408456267 314.5076905936527 290.6791259945621Q313.66706009833393 292.01888084647646 313.29928425663195 292.5705446090294L313.29928425663195 292.5705446090294Q308.1766921757834 300.1362190668981 301.7406149459992 305.25881114774666Q295.3308074191938 310.35513352561657 289.65655157579226 310.35513352561657L289.65655157579226 310.35513352561657Q281.32905573154096 310.35513352561657 277.4411396906918 301.9488285724291Q273.57949335282126 293.51625391626294 272.055850580056 278.01712915882354L272.055850580056 278.01712915882354Q269.0348347375043 281.2220329222263 264.9630307758041 287.6581101520104Q260.89122681410396 294.09418738179454 255.61101651538308 304.10294421668334L255.61101651538308 304.10294421668334Q255.21697097070245 305.048653523917 254.45514958431983 306.28332956391637Q253.71959790091591 307.51800560391575 252.77388859368233 309.4094242183829L252.77388859368233 309.4094242183829Q252.0120672072997 311.1169549119992 250.67231235538546 311.1169549119992Z " fill="#cdd6f4" transform="matrix(2.2499999313354513,0,0,2.2499999313354517,0,-249.99999084472722)"/><path d="MNaN 244.4444461398655 " fill="#cdd6f4" transform="matrix(2.2499999313354513,0,0,2.2499999313354517,0,-249.99999084472722)"/></g></svg>