<svg xmlns="http://www.w3.org/2000/svg" version="1.1" xmlns:xlink="http://www.w3.org/1999/xlink" xmlns:svgjs="http://svgjs.dev/svgjs" width="100%" height="100%" viewBox="0 0 1000 600"><rect width="1000" height="600" x="0" y="0" fill="#dce0e8"/><g><rect width="333.3333333333333" height="333.3333333333333" y="77.7777739630807" fill="#dce0e8" transform="matrix(2.2499999313354513,0,0,2.2499999313354517,0,-249.99999084472722)" x="55.55555725097656"/><path d="M172.53913822063325 192.72405313486777Q168.4373635920032 201.71536043338793 160.42396282746105 207.58279963725604Q152.38339799253066 213.45023884112422 143.0117937085746 213.45023884112422Q133.61302535423027 213.45023884112422 127.66409393919729 207.96309662269195Q121.68799845377603 202.503118474648 121.68799845377603 191.74614660088977Q121.68799845377603 180.9891747271315 131.2769153008383 175.2032277344282Q140.8658321479006 169.4444448121132 153.76876558233283 169.4444448121132L153.76876558233283 169.4444448121132L231.4036787520326 169.4444448121132Q232.00128830057469 172.18801592132928 232.00128830057469 174.71427446743917L232.00128830057469 174.71427446743917Q232.00128830057469 181.36947171256742 227.68220110883846 187.04676242371758Q223.39027798749044 192.72405313486777 214.58911918168826 192.72405313486777L214.58911918168826 192.72405313486777Q214.20882219625236 192.72405313486777 213.9915096331461 192.72405313486777L213.9915096331461 192.72405313486777L172.53913822063325 192.72405313486777ZM159.82635327891893 192.72405313486777L147.11356833720464 192.72405313486777Q139.88792561392256 192.72405313486777 139.88792561392256 197.8037342974758L139.88792561392256 197.8037342974758Q139.88792561392256 201.90550892610585 146.1356618032266 201.90550892610585L146.1356618032266 201.90550892610585Q149.0693814051607 201.90550892610585 153.08966382262588 199.3520863096077Q157.08278216970282 196.8258277634978 159.82635327891893 192.72405313486777L159.82635327891893 192.72405313486777ZM187.58803321573947 280.73564119288983Q182.69850054584936 319.0641445107507 152.98100754107276 319.0641445107507L152.98100754107276 319.0641445107507Q142.41418416003245 319.0641445107507 136.0577916891753 312.59909575834035Q129.70139921831816 306.1612110763184 129.70139921831816 296.3821457365382L129.70139921831816 296.3821457365382Q129.70139921831816 273.48283439921954 164.5257374560911 257.26588437741725L164.5257374560911 257.26588437741725L171.37108319393727 205.21952551347587Q179.3844839584794 200.13984435086778 189.9513073395197 200.13984435086778L189.9513073395197 200.13984435086778Q194.84084000940982 200.13984435086778 199.32291162347576 201.11775088484578L199.32291162347576 201.11775088484578L187.58803321573947 280.73564119288983ZM162.3797758954171 273.89029545504366Q144.17984873527058 284.4299547656957 144.17984873527058 294.20902010547593L144.17984873527058 294.20902010547593Q144.17984873527058 301.27167840642835 151.02519447311673 301.27167840642835L151.02519447311673 301.27167840642835Q158.84844674494093 301.27167840642835 160.80425981289696 286.19561934093383L160.80425981289696 286.19561934093383L162.3797758954171 273.89029545504366ZM262.8868363320472 296.3821457365382L262.8868363320472 296.3821457365382L267.5862205092194 252.75664869296307Q267.5862205092194 247.48681903763705 264.8426494000033 243.9554898871609Q262.1262423611755 240.42416073668468 255.7698498903183 240.42416073668468Q249.41345741946117 240.42416073668468 245.01287801656008 246.01995923667002Q240.61229861365896 251.5885936662671 239.41707951657472 259.9822914162452L239.41707951657472 259.9822914162452Q232.38158528601062 313.5770022923184 232.00128830057469 318.2763864694906L232.00128830057469 318.2763864694906L205.59781188316808 318.2763864694906L216.35478375692634 226.1630237828385Q224.55833301418642 224.01706222216447 228.8774202059227 224.01706222216447L228.8774202059227 224.01706222216447Q241.9705021330729 224.01706222216447 242.568111681615 233.5788149988385L242.568111681615 233.5788149988385Q252.129864458289 224.20721071488245 265.54891523009854 224.20721071488245Q278.9408019315198 224.20721071488245 286.57390571062604 230.86240796001064Q294.179845419344 237.49044113475063 294.179845419344 247.67696753035503L294.179845419344 247.67696753035503Q294.179845419344 250.4205386395711 293.01179039264804 258.02647834828906L293.01179039264804 258.02647834828906Q288.52971877858215 287.771135423454 288.52971877858215 292.66066809334404L288.52971877858215 292.66066809334404Q288.52971877858215 301.6519753918642 294.5873064751682 301.6519753918642L294.5873064751682 301.6519753918642Q307.87053689503637 301.6519753918642 314.71588263288254 273.89029545504366L314.71588263288254 273.89029545504366Q321.37107987801073 280.9257896856078 322.7564474678129 285.0275643142378L322.7564474678129 285.0275643142378Q312.3797725794906 319.44444149618664 286.764054203344 319.44444149618664L286.764054203344 319.44444149618664Q274.62171473978356 319.44444149618664 268.75427553591544 312.0286502801865Q262.8868363320472 304.58569499379826 262.8868363320472 296.3821457365382Z " fill="#4c4f69" transform="matrix(2.2499999313354513,0,0,2.2499999313354517,0,-249.99999084472722)"/><path d="MNaN 244.4444461398655 " fill="#4c4f69" transform="matrix(2.2499999313354513,0,0,2.2499999313354517,0,-249.99999084472722)"/></g></svg>